<svg width="512" height="512" viewBox="0 0 512 512" xmlns="http://www.w3.org/2000/svg">
  <!-- Background circle with gradient -->
  <defs>
    <linearGradient id="bgGradient" x1="0%" y1="0%" x2="100%" y2="100%">
      <stop offset="0%" style="stop-color:#4A90E2;stop-opacity:1" />
      <stop offset="100%" style="stop-color:#357ABD;stop-opacity:1" />
    </linearGradient>
    <linearGradient id="handGradient" x1="0%" y1="0%" x2="100%" y2="100%">
      <stop offset="0%" style="stop-color:#FFFFFF;stop-opacity:1" />
      <stop offset="100%" style="stop-color:#F0F0F0;stop-opacity:1" />
    </linearGradient>
  </defs>
  
  <!-- Main clock background -->
  <circle cx="256" cy="256" r="240" fill="url(#bgGradient)" stroke="#2C5AA0" stroke-width="8"/>
  
  <!-- Inner circle -->
  <circle cx="256" cy="256" r="200" fill="none" stroke="#FFFFFF" stroke-width="4" opacity="0.3"/>
  
  <!-- Clock face -->
  <circle cx="256" cy="256" r="180" fill="none" stroke="#FFFFFF" stroke-width="3" opacity="0.4"/>
  
  <!-- Hour markers -->
  <g stroke="#FFFFFF" stroke-width="6" stroke-linecap="round" opacity="0.8">
    <!-- 12 o'clock -->
    <line x1="256" y1="100" x2="256" y2="120"/>
    <!-- 3 o'clock -->
    <line x1="412" y1="256" x2="392" y2="256"/>
    <!-- 6 o'clock -->
    <line x1="256" y1="412" x2="256" y2="392"/>
    <!-- 9 o'clock -->
    <line x1="100" y1="256" x2="120" y2="256"/>
  </g>
  
  <!-- Smaller hour markers -->
  <g stroke="#FFFFFF" stroke-width="3" stroke-linecap="round" opacity="0.6">
    <!-- 1, 2, 4, 5, 7, 8, 10, 11 o'clock positions -->
    <line x1="350" y1="162" x2="340" y2="172"/>
    <line x1="350" y1="350" x2="340" y2="340"/>
    <line x1="162" y1="350" x2="172" y2="340"/>
    <line x1="162" y1="162" x2="172" y2="172"/>
    <line x1="380" y1="200" x2="375" y2="210"/>
    <line x1="380" y1="312" x2="375" y2="302"/>
    <line x1="132" y1="312" x2="137" y2="302"/>
    <line x1="132" y1="200" x2="137" y2="210"/>
  </g>
  
  <!-- Clock hands -->
  <!-- Hour hand (pointing to 2) -->
  <line x1="256" y1="256" x2="320" y2="200" stroke="url(#handGradient)" stroke-width="12" stroke-linecap="round"/>
  
  <!-- Minute hand (pointing to 8) -->
  <line x1="256" y1="256" x2="180" y2="320" stroke="url(#handGradient)" stroke-width="8" stroke-linecap="round"/>
  
  <!-- Center dot -->
  <circle cx="256" cy="256" r="16" fill="#FFFFFF"/>
  <circle cx="256" cy="256" r="12" fill="url(#bgGradient)"/>
  
  <!-- Small play button overlay (indicating time tracking) -->
  <g transform="translate(350, 350)">
    <circle cx="0" cy="0" r="40" fill="#FF6B6B" stroke="#FFFFFF" stroke-width="4"/>
    <polygon points="-12,-12 -12,12 12,0" fill="#FFFFFF"/>
  </g>
</svg>
